<svg width="200" height="43" viewBox="0 0 200 43" fill="none" xmlns="http://www.w3.org/2000/svg">
<g clip-path="url(#clip0_151_1113)">
<path d="M19.1525 23.5055C20.9199 23.5055 22.3525 22.0728 22.3525 20.3055C22.3525 18.5382 20.9199 17.1055 19.1525 17.1055C17.3852 17.1055 15.9525 18.5382 15.9525 20.3055C15.9525 22.0728 17.3852 23.5055 19.1525 23.5055Z" stroke="#161616" stroke-width="1.5"/>
<path d="M9.55256 20.3066H15.9526M22.3526 20.3066H28.7526M14.3526 28.6202L17.5526 23.0778M20.7526 17.5355L23.9526 11.9931M23.9526 28.6202L20.7526 23.0778M17.5526 17.5355L14.3526 11.9931M11.1526 6.44746C13.5838 5.0409 16.3438 4.30233 19.1526 4.30666C27.9894 4.30666 35.1526 11.4699 35.1526 20.3066C35.1526 29.1434 27.9894 36.3066 19.1526 36.3066C10.3158 36.3066 3.15256 29.1434 3.15256 20.3066C3.15256 17.3931 3.93176 14.6587 5.29336 12.3067" stroke="#161616" stroke-width="1.5" stroke-linecap="round"/>
<path d="M23.9526 28.6214C21.9355 29.7856 19.564 30.177 17.2798 29.7224C14.9957 29.2679 12.9546 27.9985 11.5369 26.1508C10.1192 24.303 9.42161 22.0029 9.57399 19.6789C9.72637 17.355 10.7184 15.1656 12.3652 13.5188C14.012 11.872 16.2013 10.88 18.5253 10.7276C20.8493 10.5752 23.1494 11.2729 24.9971 12.6905C26.8449 14.1082 28.1143 16.1493 28.5688 18.4334C29.0233 20.7176 28.632 23.0891 27.4678 25.1062" stroke="#161616" stroke-width="1.5" stroke-linecap="round"/>
</g>
<path d="M44.4711 28.9707L39.0951 29C38.9975 29 38.9486 28.9512 38.9486 28.8535L39.0072 8.24316C39.0072 8.16504 39.0463 8.12598 39.1244 8.12598L44.7348 8.09668C45.848 8.06738 46.8539 8.32129 47.7523 8.8584C48.6605 9.39551 49.3832 10.123 49.9203 11.041C50.4672 11.9492 50.7406 12.9551 50.7406 14.0586V22.6719C50.7406 23.8242 50.4623 24.8789 49.9057 25.8359C49.3393 26.7832 48.5873 27.54 47.6498 28.1064C46.7123 28.6631 45.6527 28.9512 44.4711 28.9707ZM44.7348 11.6855L42.64 11.7148L42.6107 25.3086H44.4711C45.2133 25.3086 45.8383 25.0498 46.3461 24.5322C46.8539 24.0146 47.1078 23.3945 47.1078 22.6719V14.0293C47.1078 13.3945 46.8734 12.8428 46.4047 12.374C45.9359 11.8955 45.3793 11.666 44.7348 11.6855ZM57.8146 29H54.4162C54.3381 29 54.299 28.9512 54.299 28.8535L54.3576 8.24316C54.3576 8.16504 54.3967 8.12598 54.4748 8.12598H60.5393C61.6232 8.12598 62.6193 8.38965 63.5275 8.91699C64.4357 9.44434 65.1584 10.1523 65.6955 11.041C66.2424 11.9297 66.5158 12.9355 66.5158 14.0586C66.5158 14.791 66.4035 15.4551 66.1789 16.0508C65.9543 16.6465 65.6906 17.1494 65.3879 17.5596C65.0949 17.9697 64.8264 18.2725 64.5822 18.4678C65.6662 19.6689 66.2082 21.0801 66.2082 22.7012L66.2375 28.8535C66.2375 28.9512 66.1887 29 66.091 29H62.6926C62.6145 29 62.5754 28.9707 62.5754 28.9121V22.7012C62.5754 21.9785 62.3215 21.3535 61.8137 20.8262C61.3059 20.2988 60.6809 20.0352 59.9387 20.0352H57.9611L57.9318 28.8535C57.9318 28.9512 57.8928 29 57.8146 29ZM60.5393 11.7148H57.9611V16.4316H60.5393C61.1545 16.4316 61.7014 16.2021 62.1799 15.7432C62.6682 15.2842 62.9123 14.7227 62.9123 14.0586C62.9123 13.4238 62.6779 12.877 62.2092 12.418C61.7404 11.9492 61.1838 11.7148 60.5393 11.7148ZM73.5166 29H70.1182C70.0205 29 69.9717 28.9512 69.9717 28.8535L70.001 8.24316C70.001 8.16504 70.04 8.12598 70.1182 8.12598H73.4873C73.5654 8.12598 73.6045 8.16504 73.6045 8.24316L73.6338 28.8535C73.6338 28.9512 73.5947 29 73.5166 29ZM84.4725 29H80.8396C80.7518 29 80.7029 28.9512 80.6932 28.8535L76.5477 8.24316C76.5281 8.16504 76.5672 8.12598 76.6648 8.12598H80.0633C80.1414 8.12598 80.1902 8.16504 80.2098 8.24316L82.6707 21.9834L85.073 8.24316C85.0926 8.16504 85.1414 8.12598 85.2195 8.12598H88.574C88.6814 8.12598 88.7205 8.16504 88.6912 8.24316L84.6189 28.8535C84.6092 28.9512 84.5603 29 84.4725 29ZM101.463 29H91.7662C91.6881 29 91.649 28.9512 91.649 28.8535L91.6783 8.24316C91.6783 8.16504 91.7174 8.12598 91.7955 8.12598H101.434C101.512 8.12598 101.551 8.1748 101.551 8.27246V11.627C101.551 11.7051 101.512 11.7441 101.434 11.7441H95.2818V16.4316H101.434C101.512 16.4316 101.551 16.4707 101.551 16.5488L101.581 19.9473C101.581 20.0254 101.542 20.0645 101.463 20.0645H95.2818V25.3086H101.463C101.542 25.3086 101.581 25.3574 101.581 25.4551V28.8828C101.581 28.9609 101.542 29 101.463 29ZM110.544 29.293C109.48 29.293 108.498 29.0195 107.6 28.4727C106.711 27.9258 105.998 27.1982 105.461 26.29C104.934 25.3721 104.67 24.3662 104.67 23.2725V21.8955C104.67 21.7881 104.719 21.7344 104.817 21.7344H108.186C108.264 21.7344 108.303 21.7881 108.303 21.8955V23.2725C108.303 23.9268 108.523 24.4932 108.962 24.9717C109.402 25.4404 109.929 25.6748 110.544 25.6748C111.169 25.6748 111.702 25.4355 112.141 24.957C112.58 24.4688 112.8 23.9072 112.8 23.2725C112.8 22.54 112.322 21.9004 111.365 21.3535C111.208 21.2559 111.003 21.1387 110.749 21.002C110.505 20.8555 110.212 20.6895 109.871 20.5039C109.529 20.3184 109.197 20.1377 108.874 19.9619C108.552 19.7764 108.24 19.6006 107.937 19.4346C106.843 18.79 106.028 17.9844 105.491 17.0176C104.963 16.041 104.7 14.9473 104.7 13.7363C104.7 12.623 104.973 11.6172 105.52 10.7188C106.067 9.83008 106.78 9.12695 107.659 8.60938C108.547 8.08203 109.509 7.81836 110.544 7.81836C111.609 7.81836 112.585 8.08203 113.474 8.60938C114.363 9.14648 115.071 9.85937 115.598 10.748C116.135 11.6367 116.404 12.6328 116.404 13.7363V16.1973C116.404 16.2754 116.365 16.3145 116.287 16.3145H112.917C112.839 16.3145 112.8 16.2754 112.8 16.1973L112.771 13.7363C112.771 13.0332 112.551 12.4619 112.112 12.0225C111.672 11.583 111.15 11.3633 110.544 11.3633C109.929 11.3633 109.402 11.5977 108.962 12.0664C108.523 12.5352 108.303 13.0918 108.303 13.7363C108.303 14.3906 108.44 14.9375 108.713 15.377C108.996 15.8164 109.509 16.2363 110.251 16.6367C110.329 16.6758 110.51 16.7734 110.793 16.9297C111.077 17.0859 111.389 17.2617 111.731 17.457C112.082 17.6426 112.4 17.8135 112.683 17.9697C112.966 18.1162 113.137 18.2041 113.196 18.2334C114.192 18.79 114.978 19.4736 115.554 20.2842C116.14 21.0947 116.433 22.0908 116.433 23.2725C116.433 24.415 116.169 25.4404 115.642 26.3486C115.105 27.2568 114.392 27.9746 113.503 28.502C112.615 29.0293 111.628 29.293 110.544 29.293ZM123.229 29H119.83C119.752 29 119.713 28.9512 119.713 28.8535L119.742 8.24316C119.742 8.16504 119.791 8.12598 119.889 8.12598H123.229C123.326 8.12598 123.375 8.16504 123.375 8.24316L123.346 16.4023H127.843V8.24316C127.843 8.16504 127.882 8.12598 127.96 8.12598H131.3C131.398 8.12598 131.446 8.16504 131.446 8.24316L131.505 28.8535C131.505 28.9512 131.456 29 131.359 29H127.989C127.892 29 127.843 28.9512 127.843 28.8535V20.0352H123.346V28.8535C123.346 28.9512 123.307 29 123.229 29ZM134.141 28.8535L137.861 8.24316C137.881 8.16504 137.93 8.12598 138.008 8.12598H142.358C142.437 8.12598 142.485 8.16504 142.505 8.24316L146.079 28.8535C146.089 28.9512 146.05 29 145.962 29H142.637C142.539 29 142.485 28.9512 142.476 28.8535L142.153 26.6562H138.066L137.744 28.8535C137.734 28.9512 137.686 29 137.598 29H134.258C134.18 29 134.141 28.9512 134.141 28.8535ZM140.322 15.0254L140.146 13.9121L140.015 15.0254L138.667 23.4482H141.553L140.322 15.0254ZM152.67 29H149.271C149.193 29 149.154 28.9512 149.154 28.8535L149.213 8.24316C149.213 8.16504 149.252 8.12598 149.33 8.12598H155.394C156.478 8.12598 157.474 8.38965 158.383 8.91699C159.291 9.44434 160.013 10.1523 160.551 11.041C161.097 11.9297 161.371 12.9355 161.371 14.0586C161.371 14.791 161.259 15.4551 161.034 16.0508C160.809 16.6465 160.546 17.1494 160.243 17.5596C159.95 17.9697 159.681 18.2725 159.437 18.4678C160.521 19.6689 161.063 21.0801 161.063 22.7012L161.093 28.8535C161.093 28.9512 161.044 29 160.946 29H157.548C157.47 29 157.43 28.9707 157.43 28.9121V22.7012C157.43 21.9785 157.177 21.3535 156.669 20.8262C156.161 20.2988 155.536 20.0352 154.794 20.0352H152.816L152.787 28.8535C152.787 28.9512 152.748 29 152.67 29ZM155.394 11.7148H152.816V16.4316H155.394C156.01 16.4316 156.556 16.2021 157.035 15.7432C157.523 15.2842 157.767 14.7227 157.767 14.0586C157.767 13.4238 157.533 12.877 157.064 12.418C156.596 11.9492 156.039 11.7148 155.394 11.7148ZM174.641 29H164.944C164.866 29 164.827 28.9512 164.827 28.8535L164.856 8.24316C164.856 8.16504 164.895 8.12598 164.973 8.12598H174.612C174.69 8.12598 174.729 8.1748 174.729 8.27246V11.627C174.729 11.7051 174.69 11.7441 174.612 11.7441H168.46V16.4316H174.612C174.69 16.4316 174.729 16.4707 174.729 16.5488L174.758 19.9473C174.758 20.0254 174.719 20.0645 174.641 20.0645H168.46V25.3086H174.641C174.719 25.3086 174.758 25.3574 174.758 25.4551V28.8828C174.758 28.9609 174.719 29 174.641 29Z" fill="#161616"/>
<defs>
<clipPath id="clip0_151_1113">
<rect width="32" height="32" fill="white" transform="translate(0.485886 1.64062)"/>
</clipPath>
</defs>
</svg>
